<svg width="150" height="66" viewBox="0 0 150 66" fill="none" xmlns="http://www.w3.org/2000/svg">
<g clip-path="url(#clip0_72_358)">
<path fill-rule="evenodd" clip-rule="evenodd" d="M103.387 0C99.7458 0 96.6044 0.746949 94.2091 1.32701C88.5427 2.65564 83.2281 5.193 78.5379 8.6685C75.5961 10.8737 72.0444 12.0144 68.4424 12.0144C66.879 12.0144 65.3043 11.7989 63.7653 11.3614C62.3705 10.9223 60.9272 10.7084 59.4886 10.7084C57.9869 10.7084 56.4884 10.9417 55.0499 11.4019C48.9147 13.3527 48.9925 18.468 41.9589 22.0601C40.2398 22.9496 38.6083 23.2802 37.0109 23.2802C32.3289 23.2802 27.9436 20.4285 22.5139 20.4285C21.3381 20.4285 20.1121 20.563 18.8227 20.8887C7.06004 23.857 -4.31341 38.6939 1.62713 48.7672C7.37468 58.5553 15.5727 61.4054 23.1691 61.4054C33.7527 61.4054 43.1704 55.8737 43.1704 55.8737C43.1704 55.8737 48.7979 61.2612 55.0499 63.5652C55.9337 63.9119 59.1983 65.1207 63.2787 65.1207C65.1567 65.1207 67.2067 64.8647 69.276 64.1501C74.9036 62.2382 75.2555 58.8016 79.9846 58.2167C80.3333 58.1745 80.6576 58.1551 80.9657 58.1551C83.8671 58.1551 85.2472 59.9018 90.6526 61.8072C93.5328 62.8021 98.6414 64.5844 103.873 64.5844C106.45 64.5844 109.058 64.1517 111.444 62.9787C116.251 60.5969 115.509 57.3952 120.316 55.8737C121.44 55.5108 122.433 55.3763 123.373 55.3763C126.09 55.3763 128.365 56.5008 132.134 56.5008C132.541 56.5008 132.965 56.4878 133.407 56.4587H133.681C140.717 55.8737 146.655 50.9141 148.493 44.0813C150.564 36.4676 149.508 32.7977 147.633 30.9619C144.233 27.6047 138.801 30.9619 133.368 26.8237C129.069 23.5054 130.868 20.0688 126.255 13.1583C125.044 11.3614 120.198 4.29536 111.444 1.32701C108.578 0.346744 105.866 4.32332e-06 103.387 4.32332e-06V0Z" fill="white" fill-opacity="0.1732"/>
<path fill-rule="evenodd" clip-rule="evenodd" d="M103.387 0C99.7458 0 96.6045 0.746949 94.2091 1.32701C88.5427 2.65564 83.2281 5.193 78.538 8.6685C75.5961 10.8737 72.0444 12.0144 68.4424 12.0144C66.879 12.0144 65.3043 11.7989 63.7653 11.3614C62.3705 10.9223 60.9272 10.7084 59.4886 10.7084C57.9869 10.7084 56.4884 10.9417 55.0499 11.4019C48.9147 13.3527 48.9925 18.468 41.9589 22.0601C40.2398 22.9496 38.6083 23.2802 37.0109 23.2802C32.3289 23.2802 27.9436 20.4285 22.5139 20.4285C21.3381 20.4285 20.1121 20.563 18.8227 20.8887C7.06004 23.857 -4.31341 38.6939 1.62713 48.7672C7.37468 58.5553 15.5727 61.4054 23.1691 61.4054C33.7527 61.4054 43.1704 55.8737 43.1704 55.8737C43.1704 55.8737 48.7979 61.2612 55.0499 63.5652C55.9337 63.9119 59.1983 65.1207 63.2787 65.1207C65.1567 65.1207 67.2067 64.8647 69.276 64.1501C74.9036 62.2382 75.2555 58.8016 79.9846 58.2167C80.3333 58.1745 80.6576 58.1551 80.9657 58.1551C83.8671 58.1551 85.2472 59.9018 90.6526 61.8072C93.5328 62.8021 98.6414 64.5844 103.873 64.5844C106.45 64.5844 109.058 64.1517 111.444 62.9787C116.251 60.5969 115.509 57.3952 120.316 55.8737C121.44 55.5108 122.433 55.3763 123.373 55.3763C126.09 55.3763 128.365 56.5008 132.134 56.5008C132.541 56.5008 132.965 56.4878 133.407 56.4587H133.681C140.717 55.8737 146.655 50.9141 148.493 44.0813C150.564 36.4676 149.508 32.7977 147.633 30.9619C144.233 27.6047 138.801 30.9619 133.368 26.8237C129.069 23.5054 130.868 20.0688 126.255 13.1583C125.044 11.3614 120.198 4.29536 111.444 1.32701C108.578 0.346744 105.866 4.32332e-06 103.387 4.32332e-06V0Z" stroke="#0E1956" stroke-width="3" stroke-miterlimit="10" stroke-linejoin="round"/>
<path fill-rule="evenodd" clip-rule="evenodd" d="M103.387 0C99.7458 0 96.6044 0.746949 94.2091 1.32701C88.5427 2.65564 83.2281 5.193 78.5379 8.6685C75.5961 10.8737 72.0444 12.0144 68.4424 12.0144C66.879 12.0144 65.3043 11.7989 63.7653 11.3614C62.3705 10.9223 60.9272 10.7084 59.4886 10.7084C57.9869 10.7084 56.4884 10.9417 55.0499 11.4019C48.9147 13.3527 48.9925 18.468 41.9589 22.0601C40.2398 22.9496 38.6083 23.2802 37.0109 23.2802C32.3289 23.2802 27.9436 20.4285 22.5139 20.4285C21.3381 20.4285 20.1121 20.563 18.8227 20.8887C7.06004 23.857 -4.31341 38.6939 1.62713 48.7672C7.37468 58.5553 15.5727 61.4054 23.1691 61.4054C33.7527 61.4054 43.1704 55.8737 43.1704 55.8737C43.1704 55.8737 48.7979 61.2612 55.0499 63.5652C55.9337 63.9119 59.1983 65.1207 63.2787 65.1207C65.1567 65.1207 67.2067 64.8647 69.276 64.1501C74.9036 62.2382 75.2555 58.8016 79.9846 58.2167C80.3333 58.1745 80.6576 58.1551 80.9657 58.1551C83.8671 58.1551 85.2472 59.9018 90.6526 61.8072C93.5328 62.8021 98.6414 64.5844 103.873 64.5844C106.45 64.5844 109.058 64.1517 111.444 62.9787C116.251 60.5969 115.509 57.3952 120.316 55.8737C121.44 55.5108 122.433 55.3763 123.373 55.3763C126.09 55.3763 128.365 56.5008 132.134 56.5008C132.541 56.5008 132.965 56.4878 133.407 56.4587H133.681C140.717 55.8737 146.655 50.9141 148.493 44.0813C150.564 36.4676 149.508 32.7977 147.633 30.9619C144.233 27.6047 138.801 30.9619 133.368 26.8237C129.069 23.5054 130.868 20.0688 126.255 13.1583C125.044 11.3614 120.198 4.29536 111.444 1.32701C108.578 0.346744 105.866 4.32332e-06 103.387 4.32332e-06V0Z" fill="white" fill-opacity="0.1732"/>
</g>
<defs>
<clipPath id="clip0_72_358">
<rect width="149.626" height="65.1207" fill="white"/>
</clipPath>
</defs>
</svg>
